<svg width="175" height="44" viewBox="0 0 175 44" fill="none" xmlns="http://www.w3.org/2000/svg">
<g clip-path="url(#clip0_1_2)">
<path d="M6.79499 1.68291C6.9507 0.713168 7.78752 0 8.76969 0H172.595C173.846 0 174.79 1.13475 174.562 2.36435L167.151 42.3644C166.975 43.3123 166.148 44 165.184 44H2.34677C1.11569 44 0.176888 42.8984 0.372065 41.6829L6.79499 1.68291Z" fill="#E11138"/>
<path d="M27.8409 31H21.125V13.5455H27.7727C29.5682 13.5455 31.1193 13.8949 32.4261 14.5938C33.7386 15.2869 34.75 16.2869 35.4602 17.5938C36.1761 18.8949 36.5341 20.4545 36.5341 22.2727C36.5341 24.0909 36.179 25.6534 35.4688 26.9602C34.7585 28.2614 33.7528 29.2614 32.4517 29.9602C31.1506 30.6534 29.6136 31 27.8409 31ZM25.8636 26.9773H27.6705C28.5341 26.9773 29.2699 26.8381 29.8778 26.5597C30.4915 26.2812 30.9574 25.8011 31.2756 25.1193C31.5994 24.4375 31.7614 23.4886 31.7614 22.2727C31.7614 21.0568 31.5966 20.108 31.267 19.4261C30.9432 18.7443 30.4659 18.2642 29.8352 17.9858C29.2102 17.7074 28.4432 17.5682 27.5341 17.5682H25.8636V26.9773ZM45.0675 31.2386C43.6697 31.2386 42.4652 30.9716 41.4538 30.4375C40.4482 29.8977 39.6726 29.125 39.1271 28.1193C38.5874 27.108 38.3175 25.8977 38.3175 24.4886C38.3175 23.1364 38.5902 21.9545 39.1357 20.9432C39.6811 19.9318 40.451 19.1449 41.4453 18.5824C42.4396 18.0199 43.6129 17.7386 44.9652 17.7386C45.9538 17.7386 46.8487 17.892 47.6499 18.1989C48.451 18.5057 49.1357 18.9517 49.7038 19.5369C50.272 20.1165 50.7095 20.821 51.0163 21.6506C51.3232 22.4801 51.4766 23.4148 51.4766 24.4545V25.5455H39.7834V22.9545H47.147C47.1413 22.5795 47.0447 22.25 46.8572 21.9659C46.6754 21.6761 46.4283 21.4517 46.1158 21.2926C45.8089 21.1278 45.4595 21.0455 45.0675 21.0455C44.6868 21.0455 44.3374 21.1278 44.0192 21.2926C43.701 21.4517 43.4453 21.6733 43.2521 21.9574C43.0646 22.2415 42.9652 22.5739 42.9538 22.9545V25.75C42.9538 26.1705 43.0419 26.5455 43.218 26.875C43.3942 27.2045 43.647 27.4631 43.9766 27.6506C44.3061 27.8381 44.7038 27.9318 45.1697 27.9318C45.4936 27.9318 45.7891 27.8864 46.0561 27.7955C46.3288 27.7045 46.5618 27.5739 46.755 27.4034C46.9482 27.2273 47.0902 27.017 47.1811 26.7727H51.4766C51.3288 27.6818 50.9794 28.4716 50.4283 29.142C49.8771 29.8068 49.147 30.3239 48.2379 30.6932C47.3345 31.0568 46.2777 31.2386 45.0675 31.2386ZM66.2614 17.9091L61.8636 31H56.4091L52.0114 17.9091H56.9545L59.0682 26.5682H59.2045L61.3182 17.9091H66.2614Z" fill="black"/>
<path d="M67.5312 13.5455H73.429L77.4858 23.4318H77.6903L81.7472 13.5455H87.6449V31H83.0085V20.9091H82.8722L78.9858 30.8636H76.1903L72.304 20.8409H72.1676V31H67.5312V13.5455ZM96.2656 31.2386C94.8452 31.2386 93.6293 30.9574 92.6179 30.3949C91.6065 29.8267 90.831 29.0369 90.2912 28.0256C89.7514 27.0085 89.4815 25.8295 89.4815 24.4886C89.4815 23.1477 89.7514 21.9716 90.2912 20.9602C90.831 19.9432 91.6065 19.1534 92.6179 18.5909C93.6293 18.0227 94.8452 17.7386 96.2656 17.7386C97.6861 17.7386 98.902 18.0227 99.9134 18.5909C100.925 19.1534 101.7 19.9432 102.24 20.9602C102.78 21.9716 103.05 23.1477 103.05 24.4886C103.05 25.8295 102.78 27.0085 102.24 28.0256C101.7 29.0369 100.925 29.8267 99.9134 30.3949C98.902 30.9574 97.6861 31.2386 96.2656 31.2386ZM96.2997 27.7614C96.6974 27.7614 97.0412 27.6278 97.331 27.3608C97.6207 27.0937 97.8452 26.7131 98.0043 26.2188C98.1634 25.7244 98.2429 25.1364 98.2429 24.4545C98.2429 23.767 98.1634 23.179 98.0043 22.6903C97.8452 22.196 97.6207 21.8153 97.331 21.5483C97.0412 21.2812 96.6974 21.1477 96.2997 21.1477C95.8793 21.1477 95.5185 21.2812 95.2173 21.5483C94.9162 21.8153 94.6861 22.196 94.527 22.6903C94.3679 23.179 94.2884 23.767 94.2884 24.4545C94.2884 25.1364 94.3679 25.7244 94.527 26.2188C94.6861 26.7131 94.9162 27.0937 95.2173 27.3608C95.5185 27.6278 95.8793 27.7614 96.2997 27.7614ZM112.766 17.9091V21.3182H104.141V17.9091H112.766ZM105.811 14.7727H110.516V26.7898C110.516 26.9716 110.547 27.125 110.609 27.25C110.672 27.3693 110.768 27.4602 110.899 27.5227C111.03 27.5795 111.197 27.608 111.402 27.608C111.544 27.608 111.709 27.5909 111.896 27.5568C112.089 27.5227 112.232 27.4943 112.322 27.4716L113.004 30.7784C112.794 30.8409 112.493 30.9176 112.101 31.0085C111.714 31.0994 111.254 31.1591 110.72 31.1875C109.641 31.2443 108.734 31.1335 108.001 30.8551C107.268 30.571 106.717 30.125 106.348 29.517C105.979 28.9091 105.8 28.1477 105.811 27.233V14.7727ZM120.852 31.2386C119.431 31.2386 118.215 30.9574 117.204 30.3949C116.192 29.8267 115.417 29.0369 114.877 28.0256C114.337 27.0085 114.067 25.8295 114.067 24.4886C114.067 23.1477 114.337 21.9716 114.877 20.9602C115.417 19.9432 116.192 19.1534 117.204 18.5909C118.215 18.0227 119.431 17.7386 120.852 17.7386C122.272 17.7386 123.488 18.0227 124.499 18.5909C125.511 19.1534 126.286 19.9432 126.826 20.9602C127.366 21.9716 127.636 23.1477 127.636 24.4886C127.636 25.8295 127.366 27.0085 126.826 28.0256C126.286 29.0369 125.511 29.8267 124.499 30.3949C123.488 30.9574 122.272 31.2386 120.852 31.2386ZM120.886 27.7614C121.283 27.7614 121.627 27.6278 121.917 27.3608C122.207 27.0937 122.431 26.7131 122.59 26.2188C122.749 25.7244 122.829 25.1364 122.829 24.4545C122.829 23.767 122.749 23.179 122.59 22.6903C122.431 22.196 122.207 21.8153 121.917 21.5483C121.627 21.2812 121.283 21.1477 120.886 21.1477C120.465 21.1477 120.104 21.2812 119.803 21.5483C119.502 21.8153 119.272 22.196 119.113 22.6903C118.954 23.179 118.874 23.767 118.874 24.4545C118.874 25.1364 118.954 25.7244 119.113 26.2188C119.272 26.7131 119.502 27.0937 119.803 27.3608C120.104 27.6278 120.465 27.7614 120.886 27.7614ZM129.545 31V17.9091H134.113V20.3977H134.249C134.488 19.4773 134.866 18.804 135.383 18.3778C135.906 17.9517 136.516 17.7386 137.215 17.7386C137.42 17.7386 137.621 17.7557 137.82 17.7898C138.025 17.8182 138.221 17.8608 138.408 17.9176V21.9318C138.175 21.8523 137.888 21.7926 137.548 21.7528C137.207 21.7131 136.914 21.6932 136.67 21.6932C136.21 21.6932 135.795 21.7983 135.425 22.0085C135.062 22.2131 134.775 22.5028 134.565 22.8778C134.354 23.2472 134.249 23.6818 134.249 24.1818V31H129.545ZM151.917 22.1705H147.587C147.565 21.9034 147.471 21.6733 147.306 21.4801C147.141 21.2869 146.928 21.1392 146.667 21.0369C146.411 20.929 146.127 20.875 145.815 20.875C145.411 20.875 145.065 20.9489 144.775 21.0966C144.485 21.2443 144.343 21.4545 144.349 21.7273C144.343 21.9205 144.425 22.0994 144.596 22.2642C144.772 22.429 145.11 22.5568 145.61 22.6477L148.269 23.125C149.61 23.3693 150.607 23.7812 151.261 24.3608C151.92 24.9347 152.252 25.7045 152.258 26.6705C152.252 27.6023 151.974 28.4119 151.423 29.0994C150.877 29.7812 150.13 30.3097 149.181 30.6847C148.238 31.054 147.161 31.2386 145.951 31.2386C143.951 31.2386 142.386 30.8295 141.255 30.0114C140.13 29.1932 139.502 28.1136 139.371 26.7727H144.042C144.104 27.1875 144.309 27.5085 144.656 27.7358C145.008 27.9574 145.451 28.0682 145.985 28.0682C146.417 28.0682 146.772 27.9943 147.05 27.8466C147.335 27.6989 147.479 27.4886 147.485 27.2159C147.479 26.9659 147.354 26.767 147.11 26.6193C146.871 26.4716 146.496 26.3523 145.985 26.2614L143.667 25.8523C142.332 25.6193 141.332 25.1761 140.667 24.5227C140.002 23.8693 139.673 23.0284 139.678 22C139.673 21.0909 139.911 20.321 140.394 19.6903C140.883 19.054 141.579 18.571 142.482 18.2415C143.391 17.9062 144.468 17.7386 145.712 17.7386C147.604 17.7386 149.096 18.1307 150.187 18.9148C151.283 19.6989 151.86 20.7841 151.917 22.1705Z" fill="white"/>
</g>
<defs>
<clipPath id="clip0_1_2">
<rect width="175" height="44" fill="white"/>
</clipPath>
</defs>
</svg>
